PathFileType	4	(X/Y/Z)	 s03c0401.trc
DataRate	CameraRate	NumFrames	NumMarkers	Units	OrigDataRate	OrigDataStartFrame	OrigNumFrames
200	200	5	52	mm	200	1001	2000
Frame#	Time	racr			lacr			c7			jug			rlel			rdr			llel			ldr			s2			lic			ric			lasi			rasi			rpsi			lpsi			rgt			lgt			rth1			rth2			rth3			rth4			rlfc			rmfc			rsh1			rsh2			rsh3			rsh4			rlmal			rmmal			rcal			rtoe			rmt5			rmt1			lth1			lth2			lth4			lth3			llfc			lmfc			lsh1			lsh2			lsh3			lsh4			llmal			lmmal			lcal			ltoe			lmt1			lmt5			SBIKE			LBIKE			RBIKE			
		X1	Y1	Z1	X2	Y2	Z2	X3	Y3	Z3	X4	Y4	Z4	X5	Y5	Z5	X6	Y6	Z6	X7	Y7	Z7	X8	Y8	Z8	X9	Y9	Z9	X10	Y10	Z10	X11	Y11	Z11	X12	Y12	Z12	X13	Y13	Z13	X14	Y14	Z14	X15	Y15	Z15	X16	Y16	Z16	X17	Y17	Z17	X18	Y18	Z18	X19	Y19	Z19	X20	Y20	Z20	X21	Y21	Z21	X22	Y22	Z22	X23	Y23	Z23	X24	Y24	Z24	X25	Y25	Z25	X26	Y26	Z26	X27	Y27	Z27	X28	Y28	Z28	X29	Y29	Z29	X30	Y30	Z30	X31	Y31	Z31	X32	Y32	Z32	X33	Y33	Z33	X34	Y34	Z34	X35	Y35	Z35	X36	Y36	Z36	X37	Y37	Z37	X38	Y38	Z38	X39	Y39	Z39	X40	Y40	Z40	X41	Y41	Z41	X42	Y42	Z42	X43	Y43	Z43	X44	Y44	Z44	X45	Y45	Z45	X46	Y46	Z46	X47	Y47	Z47	X48	Y48	Z48	X49	Y49	Z49	X50	Y50	Z50	X51	Y51	Z51	X52	Y52	Z52	
1001	5.0050	789.727831	1413.004765	-69.813903	758.445344	1422.707156	-397.526326	721.547512	1514.862375	-223.771571	713.878195	1340.580169	-227.257283	632.911291	1213.079255	104.461739	748.567378	983.792509	2.307565	633.079010	1218.884359	-570.369484	739.561968	982.572399	-453.090747	173.482786	1278.209595	-180.861669	335.108829	1309.777440	-373.838308	361.383513	1277.395339	-11.486477	357.930668	1237.453823	-334.423424	379.370217	1209.387426	-64.299800	211.611357	1319.667236	-131.386342	206.414898	1328.783909	-214.139345	273.725336	1159.362829	-6.117018	293.155487	1223.022692	-397.104478	294.933699	1006.638289	3.736941	335.391697	927.707231	2.335726	334.167495	842.749565	-10.724745	370.664218	936.633719	-3.850704	348.082249	719.279010	-47.059238	354.687343	702.740007	-161.859813	287.088088	565.212067	-17.685393	281.151002	476.481440	-30.123217	231.630638	403.366121	-32.166602	310.751032	468.853389	-54.086486	182.994929	287.359907	-50.979241	201.381505	290.161694	-133.367932	110.874070	286.997658	-81.535577	360.647722	103.177554	-117.059839	258.047380	150.847640	-34.712254	283.992584	164.659400	-147.902121	399.609872	1121.595054	-432.878720	476.606735	1082.366925	-442.994800	501.789897	1106.035680	-427.580029	523.590835	1007.224200	-452.875052	622.752608	915.922490	-446.535631	628.842820	893.431095	-315.364048	482.847182	813.834044	-459.807586	430.901755	750.010018	-437.046448	346.695787	716.606355	-429.549190	451.075453	727.366572	-413.893658	242.329095	650.192968	-408.365470	278.222244	644.539313	-318.864493	162.323904	654.356285	-360.356013	392.855785	448.659165	-347.841949	316.863453	507.240893	-309.402160	290.766756	507.867100	-425.118004	-213.666062	946.630228	-228.947750	-6.015999	84.184035	-434.973450	-11.424972	81.019407	-34.466675	
1002	5.0100	790.746280	1412.987831	-72.792349	757.780663	1422.632888	-399.626694	721.829886	1514.898551	-226.379485	713.261237	1340.457074	-229.471998	634.739843	1213.525805	102.568692	748.794577	983.453479	1.832999	633.150542	1218.238092	-571.681911	740.436359	982.713083	-451.954626	173.605040	1279.936101	-180.693278	333.783528	1312.138885	-374.133046	362.460177	1278.292743	-11.911018	357.015285	1239.681961	-335.003009	379.971362	1211.120329	-65.157362	212.075497	1321.282888	-131.096554	206.289959	1330.609747	-212.873641	274.146321	1160.640270	-6.496304	292.605523	1225.164566	-397.708500	294.375646	1008.154835	3.474013	334.371430	929.068755	2.400369	332.705898	844.042033	-10.530986	369.646414	937.708144	-4.066181	345.721747	720.458843	-46.810092	352.156899	703.435868	-162.161409	282.973415	567.050111	-17.276461	276.039115	478.529737	-29.615710	225.788369	405.906035	-31.258666	305.588161	470.584061	-53.498372	172.949102	288.557339	-51.253601	194.681309	292.823522	-132.162188	104.082383	291.453404	-80.475920	349.375472	102.275959	-117.160673	247.968058	151.844447	-34.477381	274.206591	165.640191	-147.595307	399.195071	1122.981028	-431.994011	476.332364	1084.504866	-441.875083	501.546642	1108.818643	-427.339440	524.430784	1009.677386	-450.286866	625.857520	920.943598	-444.242523	633.161199	898.926981	-312.044773	487.969688	816.314921	-458.149263	436.871829	751.714734	-435.741047	353.149928	717.035903	-428.649524	457.301385	729.270811	-412.472220	249.738237	648.378880	-407.914931	286.038279	643.446553	-318.502233	169.227476	650.704810	-360.135635	403.813439	450.335311	-348.696895	326.889439	506.970269	-309.327648	301.013465	507.337390	-425.205374	-213.703761	946.626758	-229.084988	-6.016318	84.184912	-434.959919	-11.464582	81.068853	-34.510940	
1003	5.0150	791.756540	1412.859214	-75.767396	757.012844	1422.593002	-402.287099	722.220461	1514.827780	-228.931520	712.735537	1340.174775	-231.728965	636.591513	1213.775926	100.545305	749.037851	983.083991	1.424561	633.298968	1217.583656	-572.980239	740.364137	983.027964	-451.696602	173.612499	1281.974437	-180.750241	332.477652	1314.610957	-374.425733	363.327360	1279.327927	-12.417545	356.103846	1241.978998	-335.582552	380.641377	1211.936266	-66.028350	212.424046	1323.274522	-130.808702	206.478062	1332.705533	-213.612623	274.435647	1162.216112	-6.851215	292.209497	1227.504695	-398.275900	294.220922	1009.902130	3.125228	333.786043	930.584785	2.293375	332.055178	845.571506	-10.503891	369.425530	939.331018	-4.396342	344.119668	721.647179	-46.320550	351.089888	704.333755	-162.214535	279.604158	569.320629	-16.912588	271.700164	481.015498	-29.026232	220.237677	408.980635	-30.366647	301.174559	472.767826	-52.728049	165.982892	292.312931	-50.153778	188.185842	296.189144	-131.039641	96.774024	296.631082	-79.499790	338.319104	102.412871	-117.038807	237.887825	153.755176	-34.281028	264.390335	167.332466	-147.292868	398.896265	1124.591113	-431.004972	476.116825	1086.715957	-440.677499	501.747064	1111.761705	-426.990011	525.060560	1012.208021	-448.591072	628.429414	925.630492	-441.825162	636.030944	903.639269	-310.334524	492.596872	818.443313	-456.233688	442.417310	752.905020	-434.404065	359.181939	716.898838	-427.657567	463.098070	730.743344	-411.160682	256.710694	645.735263	-407.540143	292.736650	641.528741	-317.979537	175.790933	646.197506	-360.014396	414.954491	451.165307	-349.055210	336.566896	506.159206	-309.034230	311.107276	505.999575	-424.956957	-213.755484	946.666283	-229.202909	-6.030950	84.221787	-435.011022	-11.465003	81.064148	-34.527116	
1004	5.0200	793.225464	1412.652774	-77.760420	756.351497	1422.262931	-404.332694	722.708244	1514.612214	-231.360511	712.294086	1339.841478	-234.045058	638.321422	1213.941340	98.532570	749.331166	982.724657	1.108239	633.302088	1216.819462	-574.352678	740.282079	983.297402	-451.466220	173.844754	1284.381480	-180.785396	331.296433	1317.217421	-374.758653	364.047078	1280.690913	-12.970041	355.306879	1244.326638	-336.254424	380.877144	1213.900870	-66.803058	212.804731	1325.267074	-130.905512	206.715262	1335.104865	-214.065956	274.642295	1163.962796	-7.223863	292.049597	1229.854363	-398.841313	294.520309	1011.816904	2.639194	334.102323	932.513954	1.985851	332.287602	847.529713	-10.571632	369.783605	941.106801	-4.913852	343.849386	722.985937	-46.056076	351.296718	705.673401	-162.096728	276.890996	571.992809	-16.565134	267.477513	483.900909	-28.668823	214.933136	412.670812	-29.589138	296.805818	475.161110	-52.375471	158.768412	296.898254	-49.534088	181.830934	300.264875	-130.148168	89.805513	302.233871	-79.442132	327.546930	103.826960	-116.613141	227.958822	156.856749	-34.098022	254.564082	169.648118	-147.233450	398.681249	1126.100686	-430.282773	476.157142	1088.779981	-439.630190	501.586715	1114.070361	-426.147378	525.367851	1014.625763	-447.740997	630.406734	929.633734	-439.468621	638.455848	907.506626	-307.596211	496.665100	820.103617	-454.195986	447.443383	753.559947	-433.128691	364.807543	716.214473	-426.767008	468.439704	731.546711	-409.954008	263.298217	642.162216	-407.249175	298.902882	638.750459	-317.430152	181.884214	640.793994	-359.791475	425.970347	451.586651	-348.160407	345.870961	504.581316	-308.387722	320.587146	503.247313	-423.451285	-213.811059	946.709060	-229.325664	-6.041812	84.240979	-435.029217	-11.498298	81.154423	-34.551135	
1005	5.0250	794.217876	1412.239579	-80.561089	755.728272	1421.688058	-406.256355	723.240664	1514.296176	-233.658244	711.896230	1339.625717	-236.444873	639.947068	1214.083086	96.620681	749.694152	982.420402	0.823062	633.369331	1216.064363	-575.766006	740.172599	983.580040	-451.334658	174.045257	1286.863169	-180.825446	330.306376	1319.987944	-375.477108	364.521708	1282.255410	-13.666662	354.650875	1246.743012	-337.039577	380.672209	1216.364507	-67.111609	213.071588	1327.684913	-131.015638	207.052688	1337.507419	-214.518010	274.799270	1165.945147	-7.614146	292.095884	1232.206477	-399.266961	295.168329	1014.132293	2.167417	335.168082	934.681214	1.102074	333.443237	849.801422	-10.875446	370.580363	943.489479	-5.691021	344.747726	724.637144	-45.807388	352.297619	707.590649	-162.077069	275.022676	574.901055	-16.284967	263.747794	487.241388	-28.512500	209.887931	417.066303	-28.994869	292.919625	477.944141	-52.173480	151.652305	302.098159	-49.493142	175.518035	305.056898	-129.653423	83.173000	308.614590	-80.005753	315.958710	105.198578	-117.033188	217.806519	160.341939	-34.454395	245.149804	172.825421	-147.297641	398.587343	1127.669704	-429.696559	476.332433	1090.631737	-438.612606	501.197001	1115.825692	-424.950795	526.041516	1016.768673	-445.502523	631.826039	933.063886	-437.161053	640.000826	910.638679	-304.691065	500.205142	821.021841	-452.157513	452.008292	753.436978	-431.855703	369.907498	714.827106	-425.953757	473.302724	731.642597	-408.799114	269.446056	637.822274	-406.993511	304.887149	634.849409	-316.835293	187.485339	634.196893	-359.653896	436.618950	451.569237	-348.211241	355.578523	502.141680	-308.883585	329.986926	501.250509	-424.564836	-213.837207	946.751267	-229.358747	-6.045850	84.289063	-434.988275	-11.497200	81.223949	-34.522094	
